<svg width="36" height="36" viewBox="0 0 36 36" fill="none" xmlns="http://www.w3.org/2000/svg">
<path d="M31.5 31.5H6C5.17157 31.5 4.5 30.8284 4.5 30V4.5H7.5V28.5H31.5V31.5ZM12.5595 24L10.5 21.984L17.784 14.85C18.3574 14.2927 19.2701 14.2927 19.8435 14.85L23.184 18.1215L29.4405 12L31.5 14.016L24.216 21.15C23.6426 21.7073 22.7299 21.7073 22.1565 21.15L18.8145 17.877L12.561 24H12.5595Z" fill="white"/>
<path d="M31.5 31.5H6C5.17157 31.5 4.5 30.8284 4.5 30V4.5H7.5V28.5H31.5V31.5ZM12.5595 24L10.5 21.984L17.784 14.85C18.3574 14.2927 19.2701 14.2927 19.8435 14.85L23.184 18.1215L29.4405 12L31.5 14.016L24.216 21.15C23.6426 21.7073 22.7299 21.7073 22.1565 21.15L18.8145 17.877L12.561 24H12.5595Z" fill="url(#paint0_linear_76:3590)"/>
<defs>
<linearGradient id="paint0_linear_76:3590" x1="18" y1="4.5" x2="18" y2="31.5" gradientUnits="userSpaceOnUse">
<stop stop-color="white"/>
<stop offset="1" stop-color="white" stop-opacity="0"/>
</linearGradient>
</defs>
</svg>
