<svg width="24" height="30" viewBox="0 0 24 30" fill="none" xmlns="http://www.w3.org/2000/svg">
<path d="M21 30H3C1.34315 30 0 28.6569 0 27V3.00001C0 1.34316 1.34315 9.26119e-06 3 9.26119e-06H13.5C13.8981 -0.0013949 14.2801 0.156925 14.5605 0.439519L23.5605 9.43952C23.8431 9.71991 24.0014 10.1019 24 10.5V27C24 28.6569 22.6569 30 21 30ZM3 3.00002V27H18.879L15.03 23.151C14.1152 23.7025 13.0681 23.9959 12 24C9.2418 24.0299 6.81074 22.1951 6.08318 19.5344C5.35562 16.8737 6.51477 14.0571 8.90437 12.6793C11.294 11.3015 14.3123 11.7094 16.2505 13.672C18.1887 15.6347 18.5587 18.6579 17.151 21.03L21 24.882V11.121L12.879 3.00002H3ZM12 15C10.3431 15 9 16.3432 9 18C9 19.6569 10.3431 21 12 21C13.6569 21 15 19.6569 15 18C15 16.3432 13.6569 15 12 15Z" fill="white"/>
<path d="M21 30H3C1.34315 30 0 28.6569 0 27V3.00001C0 1.34316 1.34315 9.26119e-06 3 9.26119e-06H13.5C13.8981 -0.0013949 14.2801 0.156925 14.5605 0.439519L23.5605 9.43952C23.8431 9.71991 24.0014 10.1019 24 10.5V27C24 28.6569 22.6569 30 21 30ZM3 3.00002V27H18.879L15.03 23.151C14.1152 23.7025 13.0681 23.9959 12 24C9.2418 24.0299 6.81074 22.1951 6.08318 19.5344C5.35562 16.8737 6.51477 14.0571 8.90437 12.6793C11.294 11.3015 14.3123 11.7094 16.2505 13.672C18.1887 15.6347 18.5587 18.6579 17.151 21.03L21 24.882V11.121L12.879 3.00002H3ZM12 15C10.3431 15 9 16.3432 9 18C9 19.6569 10.3431 21 12 21C13.6569 21 15 19.6569 15 18C15 16.3432 13.6569 15 12 15Z" fill="url(#paint0_linear_429:630)"/>
<defs>
<linearGradient id="paint0_linear_429:630" x1="12" y1="0" x2="12" y2="30" gradientUnits="userSpaceOnUse">
<stop stop-color="white"/>
<stop offset="1" stop-color="white" stop-opacity="0"/>
</linearGradient>
</defs>
</svg>
