<svg width="14" height="16" viewBox="0 0 14 16" fill="#fff" xmlns="http://www.w3.org/2000/svg">
<path d="M0 0H1.99978V2.55709C3.18967 1.622 4.69009 1.0643 6.32076 1.0643C10.1863 1.0643 13.32 4.19831 13.32 8.0643C13.32 11.9303 10.1863 15.0643 6.32076 15.0643C4.1705 15.0643 2.24672 14.0946 0.962786 12.5685L2.58193 11.3837C3.49773 12.4147 4.8334 13.0643 6.32076 13.0643C9.08188 13.0643 11.3202 10.8257 11.3202 8.0643C11.3202 5.30288 9.08188 3.0643 6.32076 3.0643C5.23403 3.0643 4.22829 3.41107 3.40813 4L5.99935 4V6H0V0Z" fill="white"/>
</svg>
