<svg width="36" height="36" viewBox="0 0 36 36" fill="none" xmlns="http://www.w3.org/2000/svg">
<path d="M17 32.17L13.41 28.59L12 30L18 36L24 30L22.59 28.59L19 32.17V23H17V32.17Z" fill="white"/>
<path d="M17 32.17L13.41 28.59L12 30L18 36L24 30L22.59 28.59L19 32.17V23H17V32.17Z" fill="url(#paint0_linear_78:3536)"/>
<path d="M29.2 22H6.8C5.2536 22 4 20.7688 4 19.25V2.75C4 1.23122 5.2536 0 6.8 0H29.2C30.7464 0 32 1.23122 32 2.75V19.25C32 20.7688 30.7464 22 29.2 22ZM6.8 11V19.25H29.2V11H6.8ZM6.8 2.75V5.5H29.2V2.75H6.8ZM19.4 16.5H9.6V13.75H19.4V16.5Z" fill="white"/>
<defs>
<linearGradient id="paint0_linear_78:3536" x1="18" y1="23" x2="18" y2="36" gradientUnits="userSpaceOnUse">
<stop stop-color="white"/>
<stop offset="1" stop-color="white" stop-opacity="0"/>
</linearGradient>
</defs>
</svg>
