<svg width="20" height="20" viewBox="0 0 20 20" fill="none" xmlns="http://www.w3.org/2000/svg">
<path d="M11.8204 20H8.18041C7.71052 20 7.30396 19.673 7.20341 19.214L6.79641 17.33C6.25346 17.0921 5.73863 16.7946 5.26141 16.443L3.42441 17.028C2.97641 17.1709 2.48939 16.9823 2.25441 16.575L0.430407 13.424C0.197995 13.0165 0.278065 12.5025 0.623407 12.185L2.04841 10.885C1.9836 10.2961 1.9836 9.70189 2.04841 9.113L0.623407 7.816C0.277557 7.49837 0.197454 6.98372 0.430407 6.576L2.25041 3.423C2.48539 3.0157 2.97241 2.82714 3.42041 2.97L5.25741 3.555C5.50147 3.37416 5.75554 3.20722 6.01841 3.055C6.27075 2.91269 6.53044 2.78385 6.79641 2.669L7.20441 0.787C7.30448 0.327969 7.7106 0.000494393 8.18041 0H11.8204C12.2902 0.000494393 12.6963 0.327969 12.7964 0.787L13.2084 2.67C13.4892 2.79352 13.7626 2.93308 14.0274 3.088C14.2747 3.23078 14.5137 3.38736 14.7434 3.557L16.5814 2.972C17.0291 2.82967 17.5155 3.01816 17.7504 3.425L19.5704 6.578C19.8028 6.98548 19.7227 7.49951 19.3774 7.817L17.9524 9.117C18.0172 9.70589 18.0172 10.3001 17.9524 10.889L19.3774 12.189C19.7227 12.5065 19.8028 13.0205 19.5704 13.428L17.7504 16.581C17.5155 16.9878 17.0291 17.1763 16.5814 17.034L14.7434 16.449C14.5108 16.6203 14.2691 16.7789 14.0194 16.924C13.7572 17.0759 13.4868 17.2131 13.2094 17.335L12.7964 19.214C12.6959 19.6726 12.2899 19.9996 11.8204 20ZM9.99641 6C7.78727 6 5.99641 7.79086 5.99641 10C5.99641 12.2091 7.78727 14 9.99641 14C12.2055 14 13.9964 12.2091 13.9964 10C13.9964 7.79086 12.2055 6 9.99641 6Z" fill="#C5B873"/>
</svg>
