<svg width="24" height="24" viewBox="0 0 24 24" fill="none" xmlns="http://www.w3.org/2000/svg">
<path d="M21.4939 4.68164C22.0614 5.41464 22.5343 6.21858 22.9363 7.06981L12.012 15.1328L7.4248 12.2481V8.79591L11.9884 11.657L21.4939 4.68164Z" fill="white"/>
<path d="M2.76653 12.0117C2.76653 11.8462 2.76653 11.7044 2.79017 11.5388L0.0236455 11.397C0.0236455 11.5861 0 11.7989 0 11.9881C0 15.2984 1.3478 18.3014 3.52318 20.4767L5.48576 18.5142C3.80693 16.859 2.76653 14.5654 2.76653 12.0117Z" fill="white"/>
<path d="M11.9885 2.79017C12.1541 2.79017 12.2959 2.79017 12.4614 2.81382L12.6033 0.0473269C12.4142 0.0473269 12.2013 0.0236816 12.0122 0.0236816C8.70181 0.0236816 5.69883 1.37146 3.52344 3.54682L5.48602 5.50938C7.1412 3.83057 9.45846 2.79017 11.9885 2.79017Z" fill="white"/>
<path d="M11.9878 21.2336C11.8223 21.2336 11.6804 21.2336 11.5149 21.21L11.373 23.9765C11.5622 23.9765 11.775 24.0001 11.9642 24.0001C15.2746 24.0001 18.2775 22.6523 20.4529 20.477L18.4904 18.5144C16.8352 20.2169 14.5415 21.2336 11.9878 21.2336Z" fill="white"/>
<path d="M17.1913 4.39802L19.5322 2.67191C17.475 1.01675 14.8504 0 11.9893 0V2.76649C13.9282 2.79014 15.7253 3.38127 17.1913 4.39802Z" fill="white"/>
<path d="M24.0004 12.0118C24.0004 11.2788 23.9295 10.5695 23.8112 9.86011L21.2339 11.7754C21.2339 11.8463 21.2339 11.9409 21.2339 12.0118C21.2339 14.731 20.0516 17.1665 18.1836 18.8453L20.0516 20.9024C22.4634 18.7271 24.0004 15.535 24.0004 12.0118Z" fill="white"/>
<path d="M11.9874 21.2333C9.26816 21.2333 6.83267 20.0511 5.15384 18.1831L3.09668 20.0511C5.29571 22.4865 8.46422 23.9998 11.9874 23.9998V21.2333Z" fill="white"/>
<path d="M5.8168 5.17823L3.9488 3.12109C1.51331 5.3201 0 8.48856 0 12.0117H2.76653C2.76653 9.31615 3.9488 6.85704 5.8168 5.17823Z" fill="white"/>
</svg>
