<svg width="42" height="42" viewBox="0 0 42 42" fill="none" xmlns="http://www.w3.org/2000/svg">
<path d="M29.9494 18.4417C30.3575 15.715 28.2515 14.2394 25.3457 13.261L26.2925 9.55583L24.007 8.99445L23.0928 12.6033C22.4888 12.459 21.8684 12.3146 21.248 12.1863L22.1622 8.56138L19.8767 8L18.9462 11.6891C18.4401 11.5768 17.9504 11.4645 17.4769 11.3523V11.3362L14.3098 10.5663L13.7058 12.9722C13.7058 12.9722 15.4036 13.3572 15.371 13.3732C16.3015 13.5978 16.4648 14.2073 16.4321 14.6885C15.5688 18.0684 14.7133 21.4432 13.8527 24.8254C13.7385 25.0981 13.4446 25.5151 12.8079 25.3547C12.8243 25.3868 11.1428 24.9537 11.1428 24.9537L10 27.5361L12.9875 28.2739C13.5426 28.4183 14.0813 28.5466 14.62 28.6909L13.6732 32.4281L15.9587 32.9895L16.9055 29.2844C17.5259 29.4448 18.1463 29.6052 18.734 29.7495L17.8034 33.4386L20.089 34L21.0358 30.2628C24.9539 30.9846 27.8924 30.6959 29.1168 27.2153C30.1126 24.4244 29.0678 22.8044 27.0108 21.7458C28.5291 21.409 29.6555 20.4306 29.9494 18.4417ZM24.709 25.6595C24.007 28.4503 19.2074 26.9426 17.6565 26.5577L18.9135 21.6015C20.4644 21.9864 25.4599 22.7403 24.709 25.6595ZM25.4273 18.3936C24.7743 20.9439 20.7909 19.6447 19.5012 19.3239L20.644 14.8328C21.9337 15.1536 26.0966 15.7471 25.4273 18.3936Z" fill="white"/>
<path d="M16.2853 39.9155L16.2848 39.9154C5.83261 37.3101 -0.52075 26.7208 2.08446 16.2849L2.08459 16.2844C4.69006 5.8323 15.2635 -0.520905 25.7162 2.08458L25.7177 2.08495C36.1519 4.6744 42.522 15.2628 39.9164 25.7156C37.311 36.1674 26.7215 42.5207 16.2853 39.9155Z" stroke="white" stroke-width="3"/>
</svg>
