<svg width="18" height="19" viewBox="0 0 18 19" fill="none" xmlns="http://www.w3.org/2000/svg">
<path d="M3.21311 5C3.21311 2.23858 5.61071 0 8.5683 0C11.5259 0 13.9235 2.23858 13.9235 5C13.9235 7.76142 11.5259 10 8.5683 10C5.61071 10 3.21311 7.76142 3.21311 5ZM8.5683 8C10.3429 8 11.7814 6.65685 11.7814 5C11.7814 3.34315 10.3429 2 8.5683 2C6.79375 2 5.35519 3.34315 5.35519 5C5.35519 6.65685 6.79375 8 8.5683 8Z" fill="white"/>
<path d="M2.5096 13.3431C0.90273 14.8434 0 16.8783 0 19H2.14208C2.14208 17.4087 2.81912 15.8826 4.02427 14.7574C5.22943 13.6321 6.86396 13 8.5683 13C10.2726 13 11.9072 13.6321 13.1123 14.7574C14.3175 15.8826 14.9945 17.4087 14.9945 19H17.1366C17.1366 16.8783 16.2339 14.8434 14.627 13.3431C13.0201 11.8429 10.8408 11 8.5683 11C6.29585 11 4.11647 11.8429 2.5096 13.3431Z" fill="white"/>
</svg>
