<svg width="31" height="32" viewBox="0 0 31 32" fill="none" xmlns="http://www.w3.org/2000/svg">
<path fill-rule="evenodd" clip-rule="evenodd" d="M21.277 27.814C23.986 27.814 26.925 28.741 30.179 31.618C30.505 31.906 30.939 31.548 30.654 31.19C27.457 27.161 24.5 26.394 21.551 25.746C17.943 24.952 16.088 22.926 14.795 20.702C14.538 20.26 14.422 20.338 14.399 20.907C14.37 21.602 14.419 22.523 14.575 23.429C14.429 23.435 14.283 23.434 14.135 23.434C8.975 23.434 4.791 19.258 4.791 14.107C4.791 8.957 8.975 4.782 14.136 4.782C19.296 4.782 23.48 8.957 23.48 14.107C23.48 14.474 23.462 14.837 23.42 15.192C22.738 15.069 21.395 15.055 20.453 15.136C20.099 15.167 20.149 15.332 20.417 15.38C23.506 15.937 25.627 17.848 26.113 21.315C26.123 21.395 26.229 21.418 26.27 21.349C27.5835 19.162 28.2753 16.6581 28.271 14.107C28.271 6.317 21.942 0 14.136 0C6.329 0 0 6.316 0 14.107C0 21.899 6.329 28.216 14.136 28.216C16.206 28.216 18.262 27.814 21.277 27.814ZM22.329 22.692C22.958 23.222 23.149 23.853 22.817 24.298C22.632 24.542 22.332 24.677 21.972 24.677C21.6208 24.6771 21.2807 24.5539 21.011 24.329C20.439 23.83 20.271 23.022 20.644 22.563C20.79 22.383 21.027 22.284 21.311 22.284C21.656 22.284 22.018 22.429 22.329 22.692ZM25.231 21.344C25.323 21.962 25.128 22.218 24.931 22.218C24.716 22.218 24.447 21.968 24.13 21.473C23.816 20.985 23.701 20.425 23.857 20.142C23.959 19.955 24.174 19.873 24.445 19.976C24.97 20.173 25.175 20.975 25.231 21.344Z" fill="white"/>
</svg>
