<svg width="42" height="42" viewBox="0 0 42 42" fill="none" xmlns="http://www.w3.org/2000/svg">
<path d="M37.6148 8.17986C38.6079 9.46056 39.4355 10.8652 40.139 12.3525L21.0217 26.4402L12.9941 21.4V15.3683L20.9803 20.3672L37.6148 8.17986Z" fill="white"/>
<path d="M4.84138 20.9868C4.84138 20.6977 4.84138 20.4498 4.88276 20.1606L0.0413793 19.9127C0.0413793 20.2432 0 20.615 0 20.9455C0 26.7294 2.35862 31.9761 6.16552 35.7769L9.6 32.3479C6.66207 29.456 4.84138 25.4486 4.84138 20.9868Z" fill="white"/>
<path d="M20.9798 4.87488C21.2695 4.87488 21.5177 4.87488 21.8074 4.91619L22.0557 0.0825728C21.7246 0.0825728 21.3522 0.0412598 21.0212 0.0412598C15.2281 0.0412598 9.97291 2.3961 6.16602 6.1969L9.6005 9.62588C12.497 6.69265 16.5522 4.87488 20.9798 4.87488Z" fill="white"/>
<path d="M20.9782 37.0991C20.6885 37.0991 20.4403 37.099 20.1506 37.0577L19.9023 41.8914C20.2334 41.8914 20.6058 41.9327 20.9368 41.9327C26.7299 41.9327 31.9851 39.5778 35.792 35.777L32.3575 32.3481C29.461 35.3226 25.4472 37.0991 20.9782 37.0991Z" fill="white"/>
<path d="M30.0839 7.68416L34.1805 4.66831C30.5805 1.7764 25.9874 -6.10352e-05 20.9805 -6.10352e-05V4.83356C24.3736 4.87487 27.5184 5.9077 30.0839 7.68416Z" fill="white"/>
<path d="M41.9996 20.9869C41.9996 19.7062 41.8755 18.4668 41.6686 17.2274L37.1582 20.5738C37.1582 20.6977 37.1582 20.863 37.1582 20.9869C37.1582 25.7379 35.0893 29.9932 31.8203 32.9264L35.0893 36.5206C39.31 32.7198 41.9996 27.1426 41.9996 20.9869Z" fill="white"/>
<path d="M20.9785 37.0992C16.2199 37.0992 11.9579 35.0335 9.01992 31.7698L5.41992 35.0335C9.2682 39.2887 14.813 41.9328 20.9785 41.9328V37.0992Z" fill="white"/>
<path d="M10.1793 9.04763L6.91034 5.4534C2.64828 9.29551 0 14.8315 0 20.9871H4.84138C4.84138 16.2774 6.91034 11.9809 10.1793 9.04763Z" fill="white"/>
</svg>
